<svg xmlns="http://www.w3.org/2000/svg" class="icon icon-search prada-icon" viewBox="0 0 1024 1024"><path transform="matrix(1 0 0 -1 0 960)" d="M433 913q90 0 170-34t139-93 93-138 34-170q0-85-32.5-162.5t-90-137-137.5-90T433-21q-89 0-169.5 34t-140 93-93.5 138T-3.5 414l.5 64q0 90 34 170t93 139 138 93 171 33zm0 43q-99 0-186-37.5T100 817 1 670t-37-192q0-99 37-186T100 145 247 43.5 433 6q99 0 186 37.5T766 145t99 147 37 186q0 86-29 162.5T793 781l193 192q12 12 12 29 0 16-12 28-11 11-28 11t-28-11L737 838q-65 52-143 85t-161 33z" fill="currentColor"></path></svg>
